<svg width="32" height="32" viewBox="0 0 32 32" xmlns="http://www.w3.org/2000/svg">
  <!-- Background -->
  <rect width="32" height="32" rx="4" fill="#667eea"/>
  
  <!-- QR Code Background -->
  <rect x="4" y="4" width="24" height="24" rx="2" fill="white"/>
  
  <!-- Corner squares -->
  <rect x="6" y="6" width="6" height="6" fill="none" stroke="#333" stroke-width="1"/>
  <rect x="8" y="8" width="2" height="2" fill="#333"/>
  
  <rect x="20" y="6" width="6" height="6" fill="none" stroke="#333" stroke-width="1"/>
  <rect x="22" y="8" width="2" height="2" fill="#333"/>
  
  <rect x="6" y="20" width="6" height="6" fill="none" stroke="#333" stroke-width="1"/>
  <rect x="8" y="22" width="2" height="2" fill="#333"/>
  
  <!-- QR Pattern dots -->
  <rect x="14" y="7" width="1" height="1" fill="#333"/>
  <rect x="16" y="7" width="1" height="1" fill="#333"/>
  <rect x="18" y="7" width="1" height="1" fill="#333"/>
  
  <rect x="15" y="9" width="1" height="1" fill="#333"/>
  <rect x="17" y="9" width="1" height="1" fill="#333"/>
  
  <rect x="14" y="11" width="1" height="1" fill="#333"/>
  <rect x="16" y="11" width="1" height="1" fill="#333"/>
  <rect x="18" y="11" width="1" height="1" fill="#333"/>
  
  <rect x="20" y="14" width="1" height="1" fill="#333"/>
  <rect x="22" y="14" width="1" height="1" fill="#333"/>
  <rect x="24" y="14" width="1" height="1" fill="#333"/>
  
  <rect x="14" y="17" width="1" height="1" fill="#333"/>
  <rect x="16" y="17" width="1" height="1" fill="#333"/>
  <rect x="20" y="17" width="1" height="1" fill="#333"/>
  <rect x="24" y="17" width="1" height="1" fill="#333"/>
  
  <rect x="15" y="19" width="1" height="1" fill="#333"/>
  <rect x="18" y="19" width="1" height="1" fill="#333"/>
  <rect x="21" y="19" width="1" height="1" fill="#333"/>
  
  <rect x="14" y="21" width="1" height="1" fill="#333"/>
  <rect x="17" y="21" width="1" height="1" fill="#333"/>
  <rect x="20" y="21" width="1" height="1" fill="#333"/>
  <rect x="23" y="21" width="1" height="1" fill="#333"/>
  
  <rect x="16" y="23" width="1" height="1" fill="#333"/>
  <rect x="18" y="23" width="1" height="1" fill="#333"/>
  <rect x="21" y="23" width="1" height="1" fill="#333"/>
  <rect x="24" y="23" width="1" height="1" fill="#333"/>
</svg> 