<svg width="512" height="512" viewBox="0 0 512 512" xmlns="http://www.w3.org/2000/svg">
  <defs>
    <linearGradient id="bg" x1="0%" y1="0%" x2="100%" y2="100%">
      <stop offset="0%" style="stop-color:#667eea;stop-opacity:1" />
      <stop offset="100%" style="stop-color:#764ba2;stop-opacity:1" />
    </linearGradient>
  </defs>
  
  <!-- Background -->
  <rect width="512" height="512" rx="64" fill="url(#bg)"/>
  
  <!-- QR Code Background -->
  <rect x="64" y="64" width="384" height="384" rx="24" fill="white"/>
  
  <!-- Corner squares -->
  <rect x="96" y="96" width="96" height="96" fill="none" stroke="#333" stroke-width="12"/>
  <rect x="124" y="124" width="40" height="40" fill="#333"/>
  
  <rect x="320" y="96" width="96" height="96" fill="none" stroke="#333" stroke-width="12"/>
  <rect x="348" y="348" width="40" height="40" fill="#333"/>
  
  <rect x="96" y="320" width="96" height="96" fill="none" stroke="#333" stroke-width="12"/>
  <rect x="124" y="348" width="40" height="40" fill="#333"/>
  
  <!-- QR Pattern dots -->
  <rect x="224" y="112" width="16" height="16" fill="#333"/>
  <rect x="256" y="112" width="16" height="16" fill="#333"/>
  <rect x="288" y="112" width="16" height="16" fill="#333"/>
  
  <rect x="240" y="144" width="16" height="16" fill="#333"/>
  <rect x="272" y="144" width="16" height="16" fill="#333"/>
  
  <rect x="224" y="176" width="16" height="16" fill="#333"/>
  <rect x="256" y="176" width="16" height="16" fill="#333"/>
  <rect x="288" y="176" width="16" height="16" fill="#333"/>
  
  <rect x="240" y="208" width="16" height="16" fill="#333"/>
  <rect x="272" y="208" width="16" height="16" fill="#333"/>
  
  <rect x="320" y="224" width="16" height="16" fill="#333"/>
  <rect x="352" y="224" width="16" height="16" fill="#333"/>
  <rect x="384" y="224" width="16" height="16" fill="#333"/>
  
  <rect x="336" y="256" width="16" height="16" fill="#333"/>
  <rect x="368" y="256" width="16" height="16" fill="#333"/>
  
  <rect x="224" y="272" width="16" height="16" fill="#333"/>
  <rect x="256" y="272" width="16" height="16" fill="#333"/>
  <rect x="320" y="272" width="16" height="16" fill="#333"/>
  <rect x="384" y="272" width="16" height="16" fill="#333"/>
  
  <rect x="240" y="304" width="16" height="16" fill="#333"/>
  <rect x="288" y="304" width="16" height="16" fill="#333"/>
  <rect x="336" y="304" width="16" height="16" fill="#333"/>
  
  <rect x="224" y="336" width="16" height="16" fill="#333"/>
  <rect x="272" y="336" width="16" height="16" fill="#333"/>
  <rect x="320" y="336" width="16" height="16" fill="#333"/>
  <rect x="368" y="336" width="16" height="16" fill="#333"/>
  
  <rect x="256" y="368" width="16" height="16" fill="#333"/>
  <rect x="288" y="368" width="16" height="16" fill="#333"/>
  <rect x="336" y="368" width="16" height="16" fill="#333"/>
  <rect x="384" y="368" width="16" height="16" fill="#333"/>
</svg> 